<svg width="24" height="24" viewBox="0 0 24 24" fill="none" xmlns="http://www.w3.org/2000/svg">
    <path
        d="M20.4578 4.59133C19.9691 4.08683 19.3889 3.68663 18.7503 3.41358C18.1117 3.14054 17.4272 3 16.7359 3C16.0446 3 15.3601 3.14054 14.7215 3.41358C14.0829 3.68663 13.5026 4.08683 13.0139 4.59133L11.9997 5.63785L10.9855 4.59133C9.99842 3.57276 8.6596 3.00053 7.26361 3.00053C5.86761 3.00053 4.52879 3.57276 3.54168 4.59133C2.55456 5.6099 2 6.99139 2 8.43187C2 9.87235 2.55456 11.2538 3.54168 12.2724L11.9997 21L20.4578 12.2724C20.9467 11.7681 21.3346 11.1694 21.5992 10.5105C21.8638 9.85148 22 9.14517 22 8.43187C22 7.71857 21.8638 7.01225 21.5992 6.35328C21.3346 5.69431 20.9467 5.09559 20.4578 4.59133Z"
        fill="#1A1A1A" stroke="#1A1A1A" stroke-width="1.5" stroke-linecap="round"
        stroke-linejoin="round" />
</svg>
