<svg fill="none" height="96" viewBox="0 0 96 96" width="96" xmlns="http://www.w3.org/2000/svg">
    <path
        d="M48 8C25.944 8 8 25.944 8 48C8 70.056 25.944 88 48 88C70.056 88 88 70.056 88 48C88 43.496 87.2159 39.1768 85.8359 35.1328L79.3594 41.6094C79.7794 43.6734 80 45.812 80 48C80 65.644 65.644 80 48 80C30.356 80 16 65.644 16 48C16 30.356 30.356 16 48 16C54.532 16 60.6077 17.9756 65.6797 21.3516L71.4062 15.625C64.8142 10.849 56.74 8 48 8ZM85.1719 13.1719L44 54.3438L30.8281 41.1719L25.1719 46.8281L44 65.6562L90.8281 18.8281L85.1719 13.1719Z"
        fill="black" />
</svg>
